# xmcd
#
# Track frame offsets:
# 150
# 14635
# 34960
# 54105
# 69055
# 86500
# 97840
# 117965
# 132465
# 159020
# 175910
# 196820
# 216482
#
# Disc length: 3105 seconds
#
#
# Revision: 3
# Processed by: cddbd v1.5.2PL0 Copyright (c) Steve Scherf et al.
# Submitted via: FreeRIP 2.945 
#
DISCID=a40c1f0d
DTITLE=Various Artist - Interview with Antone's Blues
DYEAR=1900
DGENRE=Blues
TTITLE0=Snooky Pryor - Wlakin' with Snooky
TTITLE1=Lavelle White - Voodoo Man
TTITLE2=Ronnie Earl - Midnite Clothes
TTITLE3=Candye Kane - Don't Blame It on Me
TTITLE4=Lewis Cowdrey - It's Lewis
TTITLE5=Sue Foley - Open up Your Eyes
TTITLE6=Teddy Morgan - Dear Ted Letter
TTITLE7=Lavelle White - Stop These Tear Drops
TTITLE8=Snooky Pryor - Pay for All our Sins
TTITLE9=Sue Foley - This Time
TTITLE10=Guy Forsityii - Needle Gum
TTITLE11=Teddy Morgan - Cryin' Time Again
TTITLE12=Steve James - County Line Road
EXTD=
EXTT0=
EXTT1=
EXTT2=
EXTT3=
EXTT4=
EXTT5=
EXTT6=
EXTT7=
EXTT8=
EXTT9=
EXTT10=
EXTT11=
EXTT12=
PLAYORDER=
